<svg width="173" height="75" viewBox="0 0 173 75" fill="none" xmlns="http://www.w3.org/2000/svg">
<path d="M35.2383 45.7V26.7C35.2383 25.5333 35.2716 24.2833 35.3383 22.95C35.4383 21.5833 35.5716 20.1667 35.7383 18.7L16.4883 45.7H35.2383ZM56.2383 45.7V54.4C56.2383 55.1667 55.9716 55.8333 55.4383 56.4C54.9383 56.9667 54.205 57.25 53.2383 57.25H48.7383V74H35.2383V57.25H5.93828C4.97161 57.25 4.08828 56.95 3.28828 56.35C2.52161 55.75 2.03828 55 1.83828 54.1L0.238281 46.45L33.9383 1.15H48.7383V45.7H56.2383ZM114.496 37.55C114.496 43.9167 113.813 49.4333 112.446 54.1C111.079 58.7667 109.179 62.6333 106.746 65.7C104.346 68.7667 101.479 71.05 98.1461 72.55C94.8461 74.05 91.2628 74.8 87.3961 74.8C83.5294 74.8 79.9461 74.05 76.6461 72.55C73.3794 71.05 70.5461 68.7667 68.1461 65.7C65.7461 62.6333 63.8628 58.7667 62.4961 54.1C61.1628 49.4333 60.4961 43.9167 60.4961 37.55C60.4961 31.1833 61.1628 25.6667 62.4961 21C63.8628 16.3333 65.7461 12.4667 68.1461 9.4C70.5461 6.33333 73.3794 4.06666 76.6461 2.6C79.9461 1.1 83.5294 0.349998 87.3961 0.349998C91.2628 0.349998 94.8461 1.1 98.1461 2.6C101.479 4.06666 104.346 6.33333 106.746 9.4C109.179 12.4667 111.079 16.3333 112.446 21C113.813 25.6667 114.496 31.1833 114.496 37.55ZM98.4961 37.55C98.4961 32.5167 98.1794 28.4 97.5461 25.2C96.9128 21.9667 96.0628 19.4333 94.9961 17.6C93.9628 15.7667 92.7794 14.5167 91.4461 13.85C90.1128 13.15 88.7628 12.8 87.3961 12.8C86.0294 12.8 84.6794 13.15 83.3461 13.85C82.0461 14.5167 80.8794 15.7667 79.8461 17.6C78.8461 19.4333 78.0294 21.9667 77.3961 25.2C76.7961 28.4 76.4961 32.5167 76.4961 37.55C76.4961 42.6167 76.7961 46.75 77.3961 49.95C78.0294 53.15 78.8461 55.6833 79.8461 57.55C80.8794 59.3833 82.0461 60.65 83.3461 61.35C84.6794 62.0167 86.0294 62.35 87.3961 62.35C88.7628 62.35 90.1128 62.0167 91.4461 61.35C92.7794 60.65 93.9628 59.3833 94.9961 57.55C96.0628 55.6833 96.9128 53.15 97.5461 49.95C98.1794 46.75 98.4961 42.6167 98.4961 37.55ZM151.254 45.7V26.7C151.254 25.5333 151.287 24.2833 151.354 22.95C151.454 21.5833 151.587 20.1667 151.754 18.7L132.504 45.7H151.254ZM172.254 45.7V54.4C172.254 55.1667 171.987 55.8333 171.454 56.4C170.954 56.9667 170.221 57.25 169.254 57.25H164.754V74H151.254V57.25H121.954C120.987 57.25 120.104 56.95 119.304 56.35C118.537 55.75 118.054 55 117.854 54.1L116.254 46.45L149.954 1.15H164.754V45.7H172.254Z" fill="#252525"/>
</svg>
