<svg width="13" height="13" viewBox="0 0 13 13" fill="none" xmlns="http://www.w3.org/2000/svg">
<path d="M5.41667 7.04149C5.64929 7.35247 5.94607 7.60979 6.28689 7.79599C6.6277 7.9822 7.00457 8.09292 7.39194 8.12067C7.77931 8.14841 8.16811 8.09252 8.53198 7.95678C8.89585 7.82105 9.22628 7.60865 9.50084 7.33399L11.1258 5.70899C11.6192 5.19819 11.8922 4.51406 11.886 3.80394C11.8798 3.09382 11.595 2.41454 11.0928 1.91239C10.5907 1.41025 9.91142 1.12541 9.2013 1.11924C8.49118 1.11307 7.80705 1.38606 7.29626 1.8794L6.36459 2.80565" stroke="#2C6573" stroke-linecap="round" stroke-linejoin="round"/>
<path d="M7.58335 5.95817C7.35073 5.64718 7.05395 5.38986 6.71313 5.20366C6.37232 5.01746 5.99545 4.90673 5.60808 4.87899C5.22071 4.85125 4.83191 4.90714 4.46804 5.04287C4.10417 5.17861 3.77375 5.39101 3.49918 5.66567L1.87418 7.29067C1.38084 7.80147 1.10785 8.4856 1.11402 9.19572C1.1202 9.90583 1.40503 10.5851 1.90717 11.0873C2.40932 11.5894 3.08861 11.8742 3.79872 11.8804C4.50884 11.8866 5.19297 11.6136 5.70377 11.1203L6.63002 10.194" stroke="#2C6573" stroke-linecap="round" stroke-linejoin="round"/>
</svg>
