<svg width="17" height="18" viewBox="0 0 17 18" fill="none" xmlns="http://www.w3.org/2000/svg">
<path d="M14.875 7.5C14.875 12.75 8.5 17.25 8.5 17.25C8.5 17.25 2.125 12.75 2.125 7.5C2.125 5.70979 2.79665 3.9929 3.99219 2.72703C5.18774 1.46116 6.80924 0.75 8.5 0.75C10.1908 0.75 11.8123 1.46116 13.0078 2.72703C14.2033 3.9929 14.875 5.70979 14.875 7.5Z" stroke="#2C6573" stroke-width="1.4" stroke-linecap="round" stroke-linejoin="round"/>
<path d="M8.5 9.75C9.6736 9.75 10.625 8.74264 10.625 7.5C10.625 6.25736 9.6736 5.25 8.5 5.25C7.32639 5.25 6.375 6.25736 6.375 7.5C6.375 8.74264 7.32639 9.75 8.5 9.75Z" stroke="#2C6573" stroke-width="1.4" stroke-linecap="round" stroke-linejoin="round"/>
</svg>
