<svg width="23" height="29" viewBox="0 0 23 29" fill="none" xmlns="http://www.w3.org/2000/svg">
<path d="M5.57403 19.968C5.7767 19.968 5.9527 19.9427 6.10203 19.892C6.25403 19.8413 6.37803 19.772 6.47403 19.684C6.5727 19.5933 6.64603 19.4867 6.69403 19.364C6.74203 19.2413 6.76603 19.1067 6.76603 18.96C6.76603 18.6667 6.6687 18.4413 6.47403 18.284C6.28203 18.1267 5.98737 18.048 5.59003 18.048H4.90203V19.968H5.57403ZM8.34203 23H7.37003C7.18603 23 7.0527 22.928 6.97003 22.784L5.75403 20.932C5.7087 20.8627 5.65803 20.8133 5.60203 20.784C5.5487 20.7547 5.4687 20.74 5.36203 20.74H4.90203V23H3.82603V17.216H5.59003C5.98203 17.216 6.31803 17.2573 6.59803 17.34C6.8807 17.42 7.11137 17.5333 7.29003 17.68C7.47137 17.8267 7.6047 18.0027 7.69003 18.208C7.77537 18.4107 7.81803 18.6347 7.81803 18.88C7.81803 19.0747 7.7887 19.2587 7.73003 19.432C7.67403 19.6053 7.59137 19.7627 7.48203 19.904C7.37537 20.0453 7.24203 20.1693 7.08203 20.276C6.9247 20.3827 6.7447 20.4667 6.54203 20.528C6.61137 20.568 6.67537 20.616 6.73403 20.672C6.7927 20.7253 6.84603 20.7893 6.89403 20.864L8.34203 23ZM12.4227 20.816L11.7187 18.892C11.684 18.8067 11.648 18.7053 11.6107 18.588C11.5733 18.4707 11.536 18.344 11.4987 18.208C11.464 18.344 11.428 18.472 11.3907 18.592C11.3533 18.7093 11.3173 18.812 11.2827 18.9L10.5827 20.816H12.4227ZM14.3227 23H13.4907C13.3973 23 13.3213 22.9773 13.2627 22.932C13.204 22.884 13.16 22.8253 13.1307 22.756L12.6987 21.576H10.3027L9.87066 22.756C9.84932 22.8173 9.80799 22.8733 9.74666 22.924C9.68532 22.9747 9.60932 23 9.51866 23H8.67866L10.9547 17.216H12.0507L14.3227 23ZM17.0693 19.968C17.272 19.968 17.448 19.9427 17.5973 19.892C17.7493 19.8413 17.8733 19.772 17.9693 19.684C18.068 19.5933 18.1413 19.4867 18.1893 19.364C18.2373 19.2413 18.2613 19.1067 18.2613 18.96C18.2613 18.6667 18.164 18.4413 17.9693 18.284C17.7773 18.1267 17.4827 18.048 17.0853 18.048H16.3973V19.968H17.0693ZM19.8373 23H18.8653C18.6813 23 18.548 22.928 18.4653 22.784L17.2493 20.932C17.204 20.8627 17.1533 20.8133 17.0973 20.784C17.044 20.7547 16.964 20.74 16.8573 20.74H16.3973V23H15.3213V17.216H17.0853C17.4773 17.216 17.8133 17.2573 18.0933 17.34C18.376 17.42 18.6067 17.5333 18.7853 17.68C18.9667 17.8267 19.1 18.0027 19.1853 18.208C19.2707 18.4107 19.3133 18.6347 19.3133 18.88C19.3133 19.0747 19.284 19.2587 19.2253 19.432C19.1693 19.6053 19.0867 19.7627 18.9773 19.904C18.8707 20.0453 18.7373 20.1693 18.5773 20.276C18.42 20.3827 18.24 20.4667 18.0373 20.528C18.1067 20.568 18.1707 20.616 18.2293 20.672C18.288 20.7253 18.3413 20.7893 18.3893 20.864L19.8373 23Z" fill="#2C6573"/>
<path d="M13 1H3.66667C2.95942 1 2.28115 1.28095 1.78105 1.78105C1.28095 2.28115 1 2.95942 1 3.66667V25C1 25.7072 1.28095 26.3855 1.78105 26.8856C2.28115 27.3857 2.95942 27.6667 3.66667 27.6667H19.6667C20.3739 27.6667 21.0522 27.3857 21.5523 26.8856C22.0524 26.3855 22.3333 25.7072 22.3333 25V10.3333L13 1Z" stroke="#2C6573" stroke-width="1.3" stroke-linecap="round" stroke-linejoin="round"/>
<path d="M13 1V10.3333H22.3333" stroke="#2C6573" stroke-width="1.3" stroke-linecap="round" stroke-linejoin="round"/>
</svg>
