<svg width="23" height="29" viewBox="0 0 23 29" fill="none" xmlns="http://www.w3.org/2000/svg">
<path d="M7.96203 20.108C7.96203 20.532 7.89137 20.9213 7.75003 21.276C7.6087 21.6307 7.41003 21.936 7.15403 22.192C6.89803 22.448 6.59003 22.6467 6.23003 22.788C5.87003 22.9293 5.47003 23 5.03003 23H2.82603V17.216H5.03003C5.47003 17.216 5.87003 17.288 6.23003 17.432C6.59003 17.5733 6.89803 17.772 7.15403 18.028C7.41003 18.2813 7.6087 18.5853 7.75003 18.94C7.89137 19.2947 7.96203 19.684 7.96203 20.108ZM6.85803 20.108C6.85803 19.7907 6.81537 19.5067 6.73003 19.256C6.64737 19.0027 6.52603 18.7893 6.36603 18.616C6.2087 18.44 6.0167 18.3053 5.79003 18.212C5.56603 18.1187 5.3127 18.072 5.03003 18.072H3.90603V22.144H5.03003C5.3127 22.144 5.56603 22.0973 5.79003 22.004C6.0167 21.9107 6.2087 21.7773 6.36603 21.604C6.52603 21.428 6.64737 21.2147 6.73003 20.964C6.81537 20.7107 6.85803 20.4253 6.85803 20.108ZM14.828 20.108C14.828 20.532 14.7573 20.9253 14.616 21.288C14.4773 21.648 14.28 21.96 14.024 22.224C13.768 22.488 13.46 22.6947 13.1 22.844C12.74 22.9907 12.34 23.064 11.9 23.064C11.4626 23.064 11.064 22.9907 10.704 22.844C10.344 22.6947 10.0346 22.488 9.77597 22.224C9.51997 21.96 9.3213 21.648 9.17997 21.288C9.03864 20.9253 8.96797 20.532 8.96797 20.108C8.96797 19.684 9.03864 19.292 9.17997 18.932C9.3213 18.5693 9.51997 18.256 9.77597 17.992C10.0346 17.728 10.344 17.5227 10.704 17.376C11.064 17.2267 11.4626 17.152 11.9 17.152C12.1933 17.152 12.4693 17.1867 12.728 17.256C12.9866 17.3227 13.224 17.4187 13.44 17.544C13.656 17.6667 13.8493 17.8173 14.02 17.996C14.1933 18.172 14.34 18.3693 14.46 18.588C14.58 18.8067 14.6706 19.044 14.732 19.3C14.796 19.556 14.828 19.8253 14.828 20.108ZM13.728 20.108C13.728 19.7907 13.6853 19.5067 13.6 19.256C13.5146 19.0027 13.3933 18.788 13.236 18.612C13.0786 18.436 12.8866 18.3013 12.66 18.208C12.436 18.1147 12.1826 18.068 11.9 18.068C11.6173 18.068 11.3626 18.1147 11.136 18.208C10.912 18.3013 10.72 18.436 10.56 18.612C10.4026 18.788 10.2813 19.0027 10.196 19.256C10.1106 19.5067 10.068 19.7907 10.068 20.108C10.068 20.4253 10.1106 20.7107 10.196 20.964C10.2813 21.2147 10.4026 21.428 10.56 21.604C10.72 21.7773 10.912 21.9107 11.136 22.004C11.3626 22.0973 11.6173 22.144 11.9 22.144C12.1826 22.144 12.436 22.0973 12.66 22.004C12.8866 21.9107 13.0786 21.7773 13.236 21.604C13.3933 21.428 13.5146 21.2147 13.6 20.964C13.6853 20.7107 13.728 20.4253 13.728 20.108ZM20.1449 21.636C20.2036 21.636 20.2556 21.6587 20.3009 21.704L20.7249 22.164C20.4902 22.4547 20.2009 22.6773 19.8569 22.832C19.5156 22.9867 19.1049 23.064 18.6249 23.064C18.1956 23.064 17.8089 22.9907 17.4649 22.844C17.1236 22.6973 16.8316 22.4933 16.5889 22.232C16.3462 21.9707 16.1596 21.6587 16.0289 21.296C15.9009 20.9333 15.8369 20.5373 15.8369 20.108C15.8369 19.6733 15.9062 19.276 16.0449 18.916C16.1836 18.5533 16.3782 18.2413 16.6289 17.98C16.8822 17.7187 17.1836 17.516 17.5329 17.372C17.8822 17.2253 18.2689 17.152 18.6929 17.152C19.1142 17.152 19.4876 17.2213 19.8129 17.36C20.1409 17.4987 20.4196 17.68 20.6489 17.904L20.2889 18.404C20.2676 18.436 20.2396 18.464 20.2049 18.488C20.1729 18.512 20.1276 18.524 20.0689 18.524C20.0289 18.524 19.9876 18.5133 19.9449 18.492C19.9022 18.468 19.8556 18.44 19.8049 18.408C19.7542 18.3733 19.6956 18.336 19.6289 18.296C19.5622 18.256 19.4849 18.22 19.3969 18.188C19.3089 18.1533 19.2062 18.1253 19.0889 18.104C18.9742 18.08 18.8409 18.068 18.6889 18.068C18.4302 18.068 18.1929 18.1147 17.9769 18.208C17.7636 18.2987 17.5796 18.432 17.4249 18.608C17.2702 18.7813 17.1502 18.9947 17.0649 19.248C16.9796 19.4987 16.9369 19.7853 16.9369 20.108C16.9369 20.4333 16.9822 20.7227 17.0729 20.976C17.1662 21.2293 17.2916 21.4427 17.4489 21.616C17.6062 21.7893 17.7916 21.9227 18.0049 22.016C18.2182 22.1067 18.4476 22.152 18.6929 22.152C18.8396 22.152 18.9716 22.144 19.0889 22.128C19.2089 22.112 19.3182 22.0867 19.4169 22.052C19.5182 22.0173 19.6129 21.9733 19.7009 21.92C19.7916 21.864 19.8809 21.796 19.9689 21.716C19.9956 21.692 20.0236 21.6733 20.0529 21.66C20.0822 21.644 20.1129 21.636 20.1449 21.636Z" fill="#2C6573"/>
<path d="M13 1H3.66667C2.95942 1 2.28115 1.28095 1.78105 1.78105C1.28095 2.28115 1 2.95942 1 3.66667V25C1 25.7072 1.28095 26.3855 1.78105 26.8856C2.28115 27.3857 2.95942 27.6667 3.66667 27.6667H19.6667C20.3739 27.6667 21.0522 27.3857 21.5523 26.8856C22.0524 26.3855 22.3333 25.7072 22.3333 25V10.3333L13 1Z" stroke="#2C6573" stroke-width="1.3" stroke-linecap="round" stroke-linejoin="round"/>
<path d="M13 1V10.3333H22.3333" stroke="#2C6573" stroke-width="1.3" stroke-linecap="round" stroke-linejoin="round"/>
</svg>
