<svg width="23" height="29" viewBox="0 0 23 29" fill="none" xmlns="http://www.w3.org/2000/svg">
<path d="M5.30447 18.072V19.676H7.32847V20.504H5.30447V22.14H7.87247V23H4.22447V17.216H7.87247V18.072H5.30447ZM13.926 23H12.854C12.7794 23 12.7194 22.9813 12.674 22.944C12.6314 22.9067 12.5967 22.864 12.57 22.816L11.23 20.596C11.2087 20.6627 11.1834 20.72 11.154 20.768L9.87003 22.816C9.83803 22.8613 9.8007 22.904 9.75803 22.944C9.71803 22.9813 9.6647 23 9.59803 23H8.59403L10.514 20.024L8.67003 17.216H9.74203C9.8167 17.216 9.87003 17.2267 9.90203 17.248C9.9367 17.2667 9.9687 17.2987 9.99803 17.344L11.314 19.464C11.3407 19.3973 11.3727 19.3307 11.41 19.264L12.618 17.364C12.6474 17.3133 12.6794 17.276 12.714 17.252C12.7487 17.228 12.7927 17.216 12.846 17.216H13.874L12.014 19.98L13.926 23ZM18.7465 21.636C18.8051 21.636 18.8571 21.6587 18.9025 21.704L19.3265 22.164C19.0918 22.4547 18.8025 22.6773 18.4585 22.832C18.1171 22.9867 17.7065 23.064 17.2265 23.064C16.7971 23.064 16.4105 22.9907 16.0665 22.844C15.7251 22.6973 15.4331 22.4933 15.1905 22.232C14.9478 21.9707 14.7611 21.6587 14.6305 21.296C14.5025 20.9333 14.4385 20.5373 14.4385 20.108C14.4385 19.6733 14.5078 19.276 14.6465 18.916C14.7851 18.5533 14.9798 18.2413 15.2305 17.98C15.4838 17.7187 15.7851 17.516 16.1345 17.372C16.4838 17.2253 16.8705 17.152 17.2945 17.152C17.7158 17.152 18.0891 17.2213 18.4145 17.36C18.7425 17.4987 19.0211 17.68 19.2505 17.904L18.8905 18.404C18.8691 18.436 18.8411 18.464 18.8065 18.488C18.7745 18.512 18.7291 18.524 18.6705 18.524C18.6305 18.524 18.5891 18.5133 18.5465 18.492C18.5038 18.468 18.4571 18.44 18.4065 18.408C18.3558 18.3733 18.2971 18.336 18.2305 18.296C18.1638 18.256 18.0865 18.22 17.9985 18.188C17.9105 18.1533 17.8078 18.1253 17.6905 18.104C17.5758 18.08 17.4425 18.068 17.2905 18.068C17.0318 18.068 16.7945 18.1147 16.5785 18.208C16.3651 18.2987 16.1811 18.432 16.0265 18.608C15.8718 18.7813 15.7518 18.9947 15.6665 19.248C15.5811 19.4987 15.5385 19.7853 15.5385 20.108C15.5385 20.4333 15.5838 20.7227 15.6745 20.976C15.7678 21.2293 15.8931 21.4427 16.0505 21.616C16.2078 21.7893 16.3931 21.9227 16.6065 22.016C16.8198 22.1067 17.0491 22.152 17.2945 22.152C17.4411 22.152 17.5731 22.144 17.6905 22.128C17.8105 22.112 17.9198 22.0867 18.0185 22.052C18.1198 22.0173 18.2145 21.9733 18.3025 21.92C18.3931 21.864 18.4825 21.796 18.5705 21.716C18.5971 21.692 18.6251 21.6733 18.6545 21.66C18.6838 21.644 18.7145 21.636 18.7465 21.636Z" fill="#2C6573"/>
<path d="M13 1H3.66667C2.95942 1 2.28115 1.28095 1.78105 1.78105C1.28095 2.28115 1 2.95942 1 3.66667V25C1 25.7072 1.28095 26.3855 1.78105 26.8856C2.28115 27.3857 2.95942 27.6667 3.66667 27.6667H19.6667C20.3739 27.6667 21.0522 27.3857 21.5523 26.8856C22.0524 26.3855 22.3333 25.7072 22.3333 25V10.3333L13 1Z" stroke="#2C6573" stroke-width="1.3" stroke-linecap="round" stroke-linejoin="round"/>
<path d="M13 1V10.3333H22.3333" stroke="#2C6573" stroke-width="1.3" stroke-linecap="round" stroke-linejoin="round"/>
</svg>
