<svg width="23" height="29" viewBox="0 0 23 29" fill="none" xmlns="http://www.w3.org/2000/svg">
<path d="M6.85034 20.944C6.85034 21.2693 6.81034 21.5627 6.73034 21.824C6.65034 22.0853 6.53034 22.308 6.37034 22.492C6.21301 22.676 6.01568 22.8173 5.77834 22.916C5.54101 23.0147 5.26501 23.064 4.95034 23.064C4.80634 23.064 4.66501 23.0547 4.52634 23.036C4.38768 23.02 4.24234 22.9933 4.09034 22.956C4.09834 22.8493 4.10768 22.7427 4.11834 22.636C4.12901 22.5293 4.13834 22.4227 4.14634 22.316C4.15434 22.2573 4.17701 22.2107 4.21434 22.176C4.25434 22.1387 4.31034 22.12 4.38234 22.12C4.42768 22.12 4.48634 22.1293 4.55834 22.148C4.63301 22.1667 4.72634 22.176 4.83834 22.176C4.99034 22.176 5.12501 22.1547 5.24234 22.112C5.35968 22.0667 5.45701 21.996 5.53434 21.9C5.61434 21.804 5.67434 21.68 5.71434 21.528C5.75434 21.3733 5.77434 21.1867 5.77434 20.968V17.216H6.85034V20.944ZM10.3638 20.124C10.5612 20.124 10.7332 20.1 10.8798 20.052C11.0265 20.0013 11.1478 19.9307 11.2438 19.84C11.3425 19.7467 11.4158 19.6347 11.4638 19.504C11.5118 19.3707 11.5358 19.2227 11.5358 19.06C11.5358 18.9053 11.5118 18.7653 11.4638 18.64C11.4158 18.5147 11.3438 18.408 11.2478 18.32C11.1518 18.232 11.0305 18.1653 10.8838 18.12C10.7372 18.072 10.5638 18.048 10.3638 18.048H9.55984V20.124H10.3638ZM10.3638 17.216C10.7505 17.216 11.0852 17.2613 11.3678 17.352C11.6505 17.4427 11.8838 17.5693 12.0678 17.732C12.2518 17.8947 12.3878 18.0893 12.4758 18.316C12.5665 18.5427 12.6118 18.7907 12.6118 19.06C12.6118 19.34 12.5652 19.5973 12.4718 19.832C12.3785 20.064 12.2385 20.264 12.0518 20.432C11.8652 20.6 11.6305 20.7307 11.3478 20.824C11.0678 20.9173 10.7398 20.964 10.3638 20.964H9.55984V23H8.48384V17.216H10.3638ZM18.605 20.1V22.44C18.3116 22.656 17.9983 22.8147 17.665 22.916C17.3343 23.0147 16.9796 23.064 16.601 23.064C16.129 23.064 15.701 22.9907 15.317 22.844C14.9356 22.6973 14.609 22.4933 14.337 22.232C14.0676 21.9707 13.8596 21.6587 13.713 21.296C13.5663 20.9333 13.493 20.5373 13.493 20.108C13.493 19.6733 13.5636 19.2747 13.705 18.912C13.8463 18.5493 14.0463 18.2373 14.305 17.976C14.5663 17.7147 14.8823 17.512 15.253 17.368C15.6236 17.224 16.0396 17.152 16.501 17.152C16.7356 17.152 16.9543 17.1707 17.157 17.208C17.3623 17.2453 17.5516 17.2973 17.725 17.364C17.901 17.428 18.061 17.5067 18.205 17.6C18.349 17.6933 18.481 17.796 18.601 17.908L18.293 18.396C18.245 18.4733 18.1823 18.5213 18.105 18.54C18.0276 18.556 17.9436 18.536 17.853 18.48C17.765 18.4293 17.677 18.3787 17.589 18.328C17.501 18.2773 17.4023 18.2333 17.293 18.196C17.1863 18.1587 17.065 18.128 16.929 18.104C16.7956 18.08 16.641 18.068 16.465 18.068C16.1796 18.068 15.921 18.116 15.689 18.212C15.4596 18.308 15.2636 18.4453 15.101 18.624C14.9383 18.8027 14.813 19.0173 14.725 19.268C14.637 19.5187 14.593 19.7987 14.593 20.108C14.593 20.4387 14.6396 20.7347 14.733 20.996C14.829 21.2547 14.9623 21.4747 15.133 21.656C15.3063 21.8347 15.5143 21.972 15.757 22.068C15.9996 22.1613 16.2703 22.208 16.569 22.208C16.7823 22.208 16.973 22.1853 17.141 22.14C17.309 22.0947 17.473 22.0333 17.633 21.956V20.908H16.905C16.8356 20.908 16.781 20.8893 16.741 20.852C16.7036 20.812 16.685 20.764 16.685 20.708V20.1H18.605Z" fill="#2C6573"/>
<path d="M13 1H3.66667C2.95942 1 2.28115 1.28095 1.78105 1.78105C1.28095 2.28115 1 2.95942 1 3.66667V25C1 25.7072 1.28095 26.3855 1.78105 26.8856C2.28115 27.3857 2.95942 27.6667 3.66667 27.6667H19.6667C20.3739 27.6667 21.0522 27.3857 21.5523 26.8856C22.0524 26.3855 22.3333 25.7072 22.3333 25V10.3333L13 1Z" stroke="#2C6573" stroke-width="1.3" stroke-linecap="round" stroke-linejoin="round"/>
<path d="M13 1V10.3333H22.3333" stroke="#2C6573" stroke-width="1.3" stroke-linecap="round" stroke-linejoin="round"/>
</svg>
