<svg width="23" height="29" viewBox="0 0 23 29" fill="none" xmlns="http://www.w3.org/2000/svg">
<path d="M9.43788 17.216V23H8.48988V19.264C8.48988 19.1147 8.49788 18.9533 8.51388 18.78L6.76588 22.064C6.68321 22.2213 6.55654 22.3 6.38588 22.3H6.23388C6.06321 22.3 5.93654 22.2213 5.85388 22.064L4.08588 18.768C4.09388 18.856 4.10054 18.9427 4.10588 19.028C4.11121 19.1133 4.11388 19.192 4.11388 19.264V23H3.16588V17.216H3.97788C4.02588 17.216 4.06721 17.2173 4.10188 17.22C4.13654 17.2227 4.16721 17.2293 4.19388 17.24C4.22321 17.2507 4.24854 17.268 4.26988 17.292C4.29388 17.316 4.31654 17.348 4.33788 17.388L6.06988 20.6C6.11521 20.6853 6.15654 20.7733 6.19388 20.864C6.23388 20.9547 6.27254 21.048 6.30988 21.144C6.34721 21.0453 6.38588 20.9507 6.42588 20.86C6.46588 20.7667 6.50854 20.6773 6.55388 20.592L8.26188 17.388C8.28321 17.348 8.30588 17.316 8.32988 17.292C8.35388 17.268 8.37921 17.2507 8.40588 17.24C8.43521 17.2293 8.46721 17.2227 8.50188 17.22C8.53654 17.2173 8.57788 17.216 8.62588 17.216H9.43788ZM13.0084 20.124C13.2057 20.124 13.3777 20.1 13.5244 20.052C13.671 20.0013 13.7924 19.9307 13.8884 19.84C13.987 19.7467 14.0604 19.6347 14.1084 19.504C14.1564 19.3707 14.1804 19.2227 14.1804 19.06C14.1804 18.9053 14.1564 18.7653 14.1084 18.64C14.0604 18.5147 13.9884 18.408 13.8924 18.32C13.7964 18.232 13.675 18.1653 13.5284 18.12C13.3817 18.072 13.2084 18.048 13.0084 18.048H12.2044V20.124H13.0084ZM13.0084 17.216C13.395 17.216 13.7297 17.2613 14.0124 17.352C14.295 17.4427 14.5284 17.5693 14.7124 17.732C14.8964 17.8947 15.0324 18.0893 15.1204 18.316C15.211 18.5427 15.2564 18.7907 15.2564 19.06C15.2564 19.34 15.2097 19.5973 15.1164 19.832C15.023 20.064 14.883 20.264 14.6964 20.432C14.5097 20.6 14.275 20.7307 13.9924 20.824C13.7124 20.9173 13.3844 20.964 13.0084 20.964H12.2044V23H11.1284V17.216H13.0084ZM18.6855 20.82V18.928C18.6855 18.7493 18.6975 18.552 18.7215 18.336L16.9255 20.82H18.6855ZM20.2735 20.82V21.392C20.2735 21.4453 20.2562 21.492 20.2215 21.532C20.1868 21.5693 20.1375 21.588 20.0735 21.588H19.5455V23H18.6855V21.588H16.2455C16.1788 21.588 16.1202 21.568 16.0695 21.528C16.0188 21.4853 15.9868 21.4333 15.9735 21.372L15.8695 20.872L18.6095 17.212H19.5455V20.82H20.2735Z" fill="#2C6573"/>
<path d="M13 1H3.66667C2.95942 1 2.28115 1.28095 1.78105 1.78105C1.28095 2.28115 1 2.95942 1 3.66667V25C1 25.7072 1.28095 26.3855 1.78105 26.8856C2.28115 27.3857 2.95942 27.6667 3.66667 27.6667H19.6667C20.3739 27.6667 21.0522 27.3857 21.5523 26.8856C22.0524 26.3855 22.3333 25.7072 22.3333 25V10.3333L13 1Z" stroke="#2C6573" stroke-width="1.3" stroke-linecap="round" stroke-linejoin="round"/>
<path d="M13 1V10.3333H22.3333" stroke="#2C6573" stroke-width="1.3" stroke-linecap="round" stroke-linejoin="round"/>
</svg>
