<svg width="23" height="29" viewBox="0 0 23 29" fill="none" xmlns="http://www.w3.org/2000/svg">
<path d="M5.83884 20.124C6.03618 20.124 6.20818 20.1 6.35484 20.052C6.50151 20.0013 6.62284 19.9307 6.71884 19.84C6.81751 19.7467 6.89084 19.6347 6.93884 19.504C6.98684 19.3707 7.01084 19.2227 7.01084 19.06C7.01084 18.9053 6.98684 18.7653 6.93884 18.64C6.89084 18.5147 6.81884 18.408 6.72284 18.32C6.62684 18.232 6.50551 18.1653 6.35884 18.12C6.21218 18.072 6.03884 18.048 5.83884 18.048H5.03484V20.124H5.83884ZM5.83884 17.216C6.22551 17.216 6.56018 17.2613 6.84284 17.352C7.12551 17.4427 7.35884 17.5693 7.54284 17.732C7.72684 17.8947 7.86284 18.0893 7.95084 18.316C8.04151 18.5427 8.08684 18.7907 8.08684 19.06C8.08684 19.34 8.04018 19.5973 7.94684 19.832C7.85351 20.064 7.71351 20.264 7.52684 20.432C7.34018 20.6 7.10551 20.7307 6.82284 20.824C6.54284 20.9173 6.21484 20.964 5.83884 20.964H5.03484V23H3.95884V17.216H5.83884ZM14.448 20.108C14.448 20.532 14.3773 20.9213 14.236 21.276C14.0946 21.6307 13.896 21.936 13.64 22.192C13.384 22.448 13.076 22.6467 12.716 22.788C12.356 22.9293 11.956 23 11.516 23H9.31197V17.216H11.516C11.956 17.216 12.356 17.288 12.716 17.432C13.076 17.5733 13.384 17.772 13.64 18.028C13.896 18.2813 14.0946 18.5853 14.236 18.94C14.3773 19.2947 14.448 19.684 14.448 20.108ZM13.344 20.108C13.344 19.7907 13.3013 19.5067 13.216 19.256C13.1333 19.0027 13.012 18.7893 12.852 18.616C12.6946 18.44 12.5026 18.3053 12.276 18.212C12.052 18.1187 11.7986 18.072 11.516 18.072H10.392V22.144H11.516C11.7986 22.144 12.052 22.0973 12.276 22.004C12.5026 21.9107 12.6946 21.7773 12.852 21.604C13.012 21.428 13.1333 21.2147 13.216 20.964C13.3013 20.7107 13.344 20.4253 13.344 20.108ZM16.8779 18.072V19.784H19.0459V20.644H16.8779V23H15.7979V17.216H19.4459V18.072H16.8779Z" fill="#2C6573"/>
<path d="M13 1H3.66667C2.95942 1 2.28115 1.28095 1.78105 1.78105C1.28095 2.28115 1 2.95942 1 3.66667V25C1 25.7072 1.28095 26.3855 1.78105 26.8856C2.28115 27.3857 2.95942 27.6667 3.66667 27.6667H19.6667C20.3739 27.6667 21.0522 27.3857 21.5523 26.8856C22.0524 26.3855 22.3333 25.7072 22.3333 25V10.3333L13 1Z" stroke="#2C6573" stroke-width="1.3" stroke-linecap="round" stroke-linejoin="round"/>
<path d="M13 1V10.3333H22.3333" stroke="#2C6573" stroke-width="1.3" stroke-linecap="round" stroke-linejoin="round"/>
</svg>
