<svg width="16" height="18" viewBox="0 0 16 18" fill="none" xmlns="http://www.w3.org/2000/svg">
<path d="M9.66732 0.666992H3.00065C2.55862 0.666992 2.1347 0.842587 1.82214 1.15515C1.50958 1.46771 1.33398 1.89163 1.33398 2.33366V15.667C1.33398 16.109 1.50958 16.5329 1.82214 16.8455C2.1347 17.1581 2.55862 17.3337 3.00065 17.3337H13.0006C13.4427 17.3337 13.8666 17.1581 14.1792 16.8455C14.4917 16.5329 14.6673 16.109 14.6673 15.667V5.66699L9.66732 0.666992Z" stroke="#2C6573" stroke-linecap="round" stroke-linejoin="round"/>
<path d="M9.66602 0.666992V5.66699H14.666" stroke="#2C6573" stroke-linecap="round" stroke-linejoin="round"/>
<path d="M11.3327 9.83301H4.66602" stroke="#2C6573" stroke-linecap="round" stroke-linejoin="round"/>
<path d="M11.3327 13.167H4.66602" stroke="#2C6573" stroke-linecap="round" stroke-linejoin="round"/>
<path d="M6.33268 6.5H5.49935H4.66602" stroke="#2C6573" stroke-linecap="round" stroke-linejoin="round"/>
</svg>
