<svg width="20" height="21" viewBox="0 0 20 21" fill="none" xmlns="http://www.w3.org/2000/svg">
<path d="M18.236 10.4454L11.2272 17.3592C10.2286 18.3442 8.87358 18.8981 7.4603 18.899C6.04702 18.9 4.69123 18.348 3.69118 17.3644C2.69113 16.3808 2.12875 15.0462 2.12775 13.6542C2.12675 12.2622 2.68722 10.9268 3.68585 9.94184L10.7053 3.01762C11.3056 2.42774 12.1192 2.0969 12.9672 2.09788C13.8152 2.09887 14.628 2.43159 15.2269 3.02286C15.8258 3.61413 16.1617 4.41552 16.1607 5.25072C16.1597 6.08592 15.8219 6.88652 15.2216 7.4764L8.2128 14.3901C8.01223 14.5877 7.74019 14.6987 7.45654 14.6987C7.17288 14.6987 6.90084 14.5877 6.70027 14.3901C6.49969 14.1926 6.38701 13.9246 6.38701 13.6453C6.38701 13.3659 6.49969 13.0979 6.70027 12.9004L13.7197 5.99713C13.819 5.89931 13.8978 5.78319 13.9516 5.65538C14.0053 5.52757 14.033 5.39059 14.033 5.25225C14.033 5.11392 14.0053 4.97693 13.9516 4.84913C13.8978 4.72132 13.819 4.60519 13.7197 4.50737C13.6204 4.40956 13.5025 4.33196 13.3727 4.27902C13.243 4.22608 13.1039 4.19883 12.9634 4.19883C12.823 4.19883 12.6839 4.22608 12.5542 4.27902C12.4244 4.33196 12.3065 4.40956 12.2072 4.50737L5.19839 11.4211C4.63393 12.0177 4.32664 12.8069 4.34125 13.6223C4.35585 14.4377 4.69122 15.2156 5.27669 15.7923C5.86216 16.3689 6.65202 16.6992 7.47987 16.7136C8.30772 16.728 9.10893 16.4254 9.71469 15.8694L16.7341 8.96616C17.7342 7.98117 18.296 6.64524 18.296 5.25225C18.296 3.85927 17.7342 2.52334 16.7341 1.53835C15.7341 0.553361 14.3777 1.03785e-08 12.9634 0C11.5492 -1.03785e-08 10.1928 0.553361 9.19276 1.53835L2.18397 8.46258C0.785597 9.83989 0 11.7079 0 13.6557C0 15.6036 0.785597 17.4716 2.18397 18.8489C3.58234 20.2262 5.47894 21 7.45654 21C9.43413 21 11.3307 20.2262 12.7291 18.8489L19.7485 11.9247C19.9217 11.7228 20.0111 11.464 19.9989 11.1999C19.9867 10.9359 19.8737 10.6862 19.6827 10.5006C19.4916 10.315 19.2364 10.2074 18.9682 10.1991C18.7 10.1908 18.4385 10.2825 18.236 10.4559V10.4454Z" fill="#2C6573"/>
</svg>
