<svg width="16" height="15" viewBox="0 0 16 15" fill="none" xmlns="http://www.w3.org/2000/svg">
<g clip-path="url(#clip0)">
<path d="M14.3182 10.5346V12.3841C14.3189 12.5558 14.2837 12.7258 14.2149 12.8831C14.1461 13.0404 14.0452 13.1817 13.9187 13.2977C13.7922 13.4138 13.6428 13.5022 13.4802 13.5572C13.3175 13.6122 13.1452 13.6326 12.9741 13.6172C11.077 13.411 9.25465 12.7628 7.65353 11.7244C6.1639 10.7779 4.90095 9.51493 3.95438 8.0253C2.91244 6.41691 2.26401 4.5857 2.06164 2.68002C2.04624 2.50953 2.0665 2.3377 2.12114 2.17547C2.17578 2.01324 2.2636 1.86417 2.37901 1.73774C2.49442 1.61131 2.63489 1.51029 2.79148 1.44113C2.94807 1.37196 3.11735 1.33616 3.28853 1.336H5.13811C5.43731 1.33305 5.72738 1.43901 5.95424 1.63411C6.1811 1.82921 6.32928 2.10015 6.37116 2.39642C6.44922 2.98833 6.594 3.5695 6.80273 4.12886C6.88567 4.34953 6.90363 4.58935 6.85446 4.81991C6.80528 5.05047 6.69105 5.2621 6.52529 5.42973L5.7423 6.21271C6.61996 7.75621 7.89795 9.03421 9.44145 9.91187L10.2244 9.12888C10.3921 8.96312 10.6037 8.84888 10.8343 8.79971C11.0648 8.75054 11.3046 8.76849 11.5253 8.85144C12.0847 9.06017 12.6658 9.20494 13.2577 9.28301C13.5572 9.32526 13.8307 9.47611 14.0263 9.70687C14.2218 9.93763 14.3257 10.2322 14.3182 10.5346Z" stroke="#2C6573" stroke-width="1.4" stroke-linecap="round" stroke-linejoin="round"/>
</g>
<defs>
<clipPath id="clip0">
<path d="M0.754395 0.102539H15.551V14.8991H0.754395V0.102539Z" fill="white"/>
</clipPath>
</defs>
</svg>
