<svg width="16" height="16" viewBox="0 0 16 16" fill="none" xmlns="http://www.w3.org/2000/svg">
<g clip-path="url(#clip0)">
<path d="M8.33036 10.1363C9.69235 10.1363 10.7965 9.03219 10.7965 7.6702C10.7965 6.30821 9.69235 5.2041 8.33036 5.2041C6.96837 5.2041 5.86426 6.30821 5.86426 7.6702C5.86426 9.03219 6.96837 10.1363 8.33036 10.1363Z" stroke="#2C6573" stroke-width="1.4" stroke-linecap="round" stroke-linejoin="round"/>
<path d="M10.7964 5.20365V8.28628C10.7964 8.77682 10.9913 9.24727 11.3381 9.59413C11.685 9.94099 12.1554 10.1359 12.646 10.1359C13.1365 10.1359 13.607 9.94099 13.9538 9.59413C14.3007 9.24727 14.4956 8.77682 14.4956 8.28628V7.66975C14.4955 6.27828 14.0247 4.92774 13.1597 3.83776C12.2948 2.74778 11.0865 1.98245 9.73144 1.66621C8.37637 1.34998 6.95417 1.50144 5.6961 2.09597C4.43803 2.69051 3.41807 3.69314 2.80207 4.94084C2.18608 6.18855 2.01028 7.60794 2.30325 8.96823C2.59622 10.3285 3.34074 11.5497 4.41575 12.4332C5.49076 13.3167 6.83303 13.8106 8.2243 13.8345C9.61557 13.8584 10.974 13.411 12.0788 12.565" stroke="#2C6573" stroke-width="1.4" stroke-linecap="round" stroke-linejoin="round"/>
</g>
<defs>
<clipPath id="clip0">
<path d="M0.932129 0.271484H15.7287V15.0681H0.932129V0.271484Z" fill="white"/>
</clipPath>
</defs>
</svg>
