<svg width="15" height="16" viewBox="0 0 15 16" fill="none" xmlns="http://www.w3.org/2000/svg">
<g clip-path="url(#clip0)">
<path d="M12.9819 7.09756C12.9819 11.4132 7.74144 15.1124 7.74144 15.1124C7.74144 15.1124 2.50098 11.4132 2.50098 7.09756C2.50098 5.62594 3.0531 4.2146 4.03587 3.17401C5.01865 2.13342 6.35158 1.54883 7.74144 1.54883C9.1313 1.54883 10.4642 2.13342 11.447 3.17401C12.4298 4.2146 12.9819 5.62594 12.9819 7.09756Z" stroke="#2C6573" stroke-width="1.4" stroke-linecap="round" stroke-linejoin="round"/>
<path d="M7.74145 8.9472C8.70619 8.9472 9.48827 8.11912 9.48827 7.09762C9.48827 6.07613 8.70619 5.24805 7.74145 5.24805C6.77671 5.24805 5.99463 6.07613 5.99463 7.09762C5.99463 8.11912 6.77671 8.9472 7.74145 8.9472Z" stroke="#2C6573" stroke-width="1.4" stroke-linecap="round" stroke-linejoin="round"/>
</g>
<defs>
<clipPath id="clip0">
<path d="M0.754395 0.932617H14.729V15.7292H0.754395V0.932617Z" fill="white"/>
</clipPath>
</defs>
</svg>
