<svg width="24" height="29" viewBox="0 0 24 29" fill="none" xmlns="http://www.w3.org/2000/svg">
<path d="M14.3333 1H3.66667C2.95942 1 2.28115 1.28095 1.78105 1.78105C1.28095 2.28115 1 2.95942 1 3.66667V25C1 25.7072 1.28095 26.3855 1.78105 26.8856C2.28115 27.3857 2.95942 27.6667 3.66667 27.6667H19.6667C20.3739 27.6667 21.0522 27.3857 21.5523 26.8856C22.0524 26.3855 22.3333 25.7072 22.3333 25V9L14.3333 1Z" stroke="#2C6573" stroke-width="2" stroke-linecap="round" stroke-linejoin="round"/>
<path d="M14.332 1V9H22.332" stroke="#2C6573" stroke-width="2" stroke-linecap="round" stroke-linejoin="round"/>
<path d="M16.9987 15.666H6.33203" stroke="#2C6573" stroke-width="2" stroke-linecap="round" stroke-linejoin="round"/>
<path d="M16.9987 21H6.33203" stroke="#2C6573" stroke-width="2" stroke-linecap="round" stroke-linejoin="round"/>
<path d="M8.9987 10.333H7.66536H6.33203" stroke="#2C6573" stroke-width="2" stroke-linecap="round" stroke-linejoin="round"/>
</svg>
