<svg width="50" height="50" viewBox="0 0 50 50" fill="none" xmlns="http://www.w3.org/2000/svg">
<circle cx="25" cy="25" r="24.5" fill="white" stroke="#E3E3E3"/>
<path d="M21.75 37.8688C21.0187 37.8688 20.3437 37.5875 19.8375 37.0813L12.3562 29.6C11.2875 28.5312 11.2875 26.8438 12.3562 25.775L22.3687 15.7625C23.2687 14.8625 24.9 14.1875 26.1375 14.1875H32.55C34.0125 14.1875 35.25 15.425 35.25 16.8875V23.3C35.25 24.5375 34.575 26.1687 33.675 27.0687L23.6625 37.0813C23.1562 37.5875 22.4812 37.8688 21.75 37.8688ZM26.1375 15.875C25.35 15.875 24.1125 16.3812 23.55 16.9437L13.5375 26.9563C13.1437 27.35 13.1437 27.9688 13.5375 28.3625L21.0187 35.8437C21.4125 36.2375 22.0875 36.2375 22.425 35.8437L32.4375 25.8313C33 25.2688 33.5062 24.0875 33.5062 23.2438V16.8313C33.5062 16.2688 33.0562 15.8187 32.4937 15.8187H26.1375V15.875Z" fill="#2C6573"/>
<path d="M28.5004 24.2566C26.7004 24.2566 25.1816 22.7941 25.1816 20.9379C25.1816 19.1379 26.6441 17.6191 28.5004 17.6191C30.3004 17.6191 31.8191 19.0816 31.8191 20.9379C31.8191 22.7379 30.3566 24.2566 28.5004 24.2566ZM28.5004 19.1941C27.5441 19.1941 26.7566 19.9816 26.7566 20.9379C26.7566 21.8941 27.5441 22.6816 28.5004 22.6816C29.4566 22.6816 30.2441 21.8941 30.2441 20.9379C30.2441 19.9816 29.4566 19.1941 28.5004 19.1941Z" fill="#2C6573"/>
</svg>
