<svg width="15" height="15" viewBox="0 0 15 15" fill="none" xmlns="http://www.w3.org/2000/svg">
<path d="M14.3125 3.75H13.125V2.5625C13.125 2.1875 12.8125 1.875 12.4375 1.875H11.25V0.6875C11.25 0.3125 10.9375 0 10.5625 0H0.6875C0.3125 0 0 0.3125 0 0.6875V10.5625C0 10.9375 0.3125 11.25 0.6875 11.25H1.875V12.4375C1.875 12.8125 2.1875 13.125 2.5625 13.125H3.75V14.3125C3.75 14.6875 4.0625 15 4.4375 15H14.3125C14.6875 15 15 14.6875 15 14.3125V4.4375C15 4.0625 14.6875 3.75 14.3125 3.75ZM1.875 2.5625V10H1.25V1.25H10V1.875H2.5625C2.1875 1.875 1.875 2.1875 1.875 2.5625ZM3.75 4.4375V11.875H3.125V3.125H11.875V3.75H4.4375C4.0625 3.75 3.75 4.0625 3.75 4.4375ZM13.75 13.75H5V5H13.75V13.75Z" fill="#2C6573"/>
<path d="M11.875 8.125H6.875V8.75H11.875V8.125Z" fill="#2C6573"/>
<path d="M11.875 6.875H6.875V7.5H11.875V6.875Z" fill="#2C6573"/>
<path d="M11.875 10.625H6.875V11.25H11.875V10.625Z" fill="#2C6573"/>
<path d="M11.875 9.375H6.875V10H11.875V9.375Z" fill="#2C6573"/>
<path d="M11.875 11.875H6.875V12.5H11.875V11.875Z" fill="#2C6573"/>
</svg>
