<svg width="15" height="17" viewBox="0 0 15 17" fill="none" xmlns="http://www.w3.org/2000/svg">
<path d="M7.4497 10.4268C4.57636 10.4268 2.23633 8.08672 2.23633 5.21338C2.23633 2.34003 4.57636 0 7.4497 0C10.323 0 12.6631 2.34003 12.6631 5.21338C12.6631 8.08672 10.323 10.4268 7.4497 10.4268ZM7.4497 1.48565C5.39809 1.48565 3.72742 3.15632 3.72742 5.20793C3.72742 7.25954 5.39809 8.93022 7.4497 8.93022C9.50132 8.93022 11.172 7.25954 11.172 5.20793C11.172 3.15632 9.50132 1.48565 7.4497 1.48565Z" fill="#2C6573"/>
<path d="M14.9 16.3856H13.4089C13.4089 13.0986 10.7369 10.4266 7.45001 10.4266C4.16308 10.4266 1.49109 13.0986 1.49109 16.3856H0C0 12.2769 3.34135 8.93555 7.45001 8.93555C11.5587 8.93555 14.9 12.2769 14.9 16.3856Z" fill="#2C6573"/>
</svg>
