<svg width="50" height="50" viewBox="0 0 50 50" fill="none" xmlns="http://www.w3.org/2000/svg">
<circle cx="25" cy="25" r="24.5" fill="white" stroke="#E3E3E3"/>
<path d="M19.9375 29.0625H13.4375C12.9884 29.0625 12.625 28.6991 12.625 28.25V21.75C12.625 21.3009 12.9884 20.9375 13.4375 20.9375H19.9375C20.3866 20.9375 20.75 21.3009 20.75 21.75V28.25C20.75 28.6991 20.3866 29.0625 19.9375 29.0625ZM14.25 27.4375H19.125V22.5625H14.25V27.4375Z" fill="#2C6573"/>
<path d="M34.5625 34.75H28.0625C27.6134 34.75 27.25 34.3866 27.25 33.9375V27.4375C27.25 26.9884 27.6134 26.625 28.0625 26.625H34.5625C35.0116 26.625 35.375 26.9884 35.375 27.4375V33.9375C35.375 34.3866 35.0116 34.75 34.5625 34.75ZM28.875 33.125H33.75V28.25H28.875V33.125Z" fill="#2C6573"/>
<path d="M34.5625 21.75H28.0625C27.6134 21.75 27.25 21.3866 27.25 20.9375V14.4375C27.25 13.9884 27.6134 13.625 28.0625 13.625H34.5625C35.0116 13.625 35.375 13.9884 35.375 14.4375V20.9375C35.375 21.3866 35.0116 21.75 34.5625 21.75ZM28.875 20.125H33.75V15.25H28.875V20.125Z" fill="#2C6573"/>
<path d="M24 38C23.5509 38 23.1875 37.6366 23.1875 37.1875V12.8125C23.1875 12.3634 23.5509 12 24 12C24.4491 12 24.8125 12.3634 24.8125 12.8125V37.1875C24.8125 37.6366 24.4491 38 24 38Z" fill="#2C6573"/>
<path d="M24 25.8125H19.9375C19.4884 25.8125 19.125 25.4491 19.125 25C19.125 24.5509 19.4884 24.1875 19.9375 24.1875H24C24.4491 24.1875 24.8125 24.5509 24.8125 25C24.8125 25.4491 24.4491 25.8125 24 25.8125Z" fill="#2C6573"/>
<path d="M28.0625 18.5H24C23.5509 18.5 23.1875 18.1366 23.1875 17.6875C23.1875 17.2384 23.5509 16.875 24 16.875H28.0625C28.5116 16.875 28.875 17.2384 28.875 17.6875C28.875 18.1366 28.5116 18.5 28.0625 18.5Z" fill="#2C6573"/>
<path d="M28.0625 31.5H24C23.5509 31.5 23.1875 31.1366 23.1875 30.6875C23.1875 30.2384 23.5509 29.875 24 29.875H28.0625C28.5116 29.875 28.875 30.2384 28.875 30.6875C28.875 31.1366 28.5116 31.5 28.0625 31.5Z" fill="#2C6573"/>
</svg>
